<?xml version="1.0" encoding="UTF-8"?><svg id="Layer_2" xmlns="http://www.w3.org/2000/svg" viewBox="0 0 372.95 476.5"><g id="Layer_1-2"><g><path d="M216.15,134.51c0-16.42-13.31-29.74-29.73-29.74s-29.74,13.32-29.74,29.74,13.32,29.73,29.74,29.73,29.73-13.31,29.73-29.73Z"/><path d="M186.15,352.95c8.09,0,15.41-3.28,20.71-8.58,5.3-5.3,8.58-12.62,8.58-20.7v-61.06c0-7.97,2.65-15.7,7.54-21.99l3.32-4.27,7.08-9.1,43.53-55.96c6.64-8.54,4.92-20.94-3.92-27.33-8.43-6.09-20.25-4.06-26.64,4.15l-23.82,29.59c-8.63,10.72-21.58,17.07-35.35,17.33-.28,.01-.56,.01-.85,.01-14.03,0-27.33-6.34-36.16-17.27l-23.98-29.66c-6.39-8.21-18.21-10.24-26.64-4.15-8.85,6.39-10.56,18.79-3.92,27.33l53.68,69.02c4.89,6.28,7.55,14.02,7.55,21.99v61.37c0,16.17,13.11,29.28,29.29,29.28Z"/><path d="M343.04,84.33c-18.58-28.66-44.88-51.58-76.06-66.29C236.02,3.43,201.55-2.49,167.33,.95,126.47,5.04,87.97,22.33,58.91,49.63c-18.4,17.27-32.88,37.67-43.04,60.63C5.34,134.04,0,159.36,0,185.52c0,41.87,28.21,100.21,83.83,173.42,42.34,55.71,85.51,99.97,87.32,101.82l15.3,15.74,15.37-15.72c3.23-3.32,24.73-25.54,51.45-57.18,11.8-13.97,1.89-35.35-16.39-35.35h0c-6.33,0-12.34,2.8-16.42,7.64-13.47,15.96-25.47,29.36-33.98,38.64-17.4-18.98-49.37-55.16-78.72-95.25-42.48-58.01-64.94-104.27-64.94-133.77,0-79.23,64.45-143.68,143.66-143.68s143.66,64.45,143.66,143.68c0,4.89-.62,10.25-1.84,16.05-2.8,13.24,7.37,25.69,20.9,25.69h0c9.96,0,18.69-6.87,20.82-16.61,1.96-8.94,2.94-17.31,2.94-25.11,0-36.04-10.34-71.03-29.91-101.2Z"/></g></g></svg>